<svg width="216" height="36" viewBox="0 0 216 36" fill="none" xmlns="http://www.w3.org/2000/svg">
<path d="M205.282 2C203.471 2 202 3.46792 202 5.2823V11.8469C202 13.6583 203.468 15.1292 205.282 15.1292H211.847C213.658 15.1292 215.129 13.6613 215.129 11.8469V2H205.282Z" fill="#B1EC52"/>
<path d="M205.589 7.24258C205.483 6.77454 205.951 6.35818 206.556 6.35818C207.103 6.35818 207.65 6.47974 207.857 7.24258H208.556V8.40354C207.683 7.68629 205.793 8.13609 205.589 7.24258ZM212.85 6.92042H211.273L209.774 8.56158V5.28231H208.559V6.07857C208.519 6.02691 208.477 5.97524 208.431 5.92661C207.987 5.45858 207.352 5.22153 206.538 5.22153C205.595 5.22153 205.06 5.64397 204.775 5.99652C204.422 6.43416 204.264 7.03591 204.374 7.52218C204.656 8.78647 205.829 8.98706 206.689 9.09951C207.37 9.18764 208.021 9.31225 208.002 9.91704C207.984 10.5462 207.276 10.7012 206.808 10.7012C205.595 10.7012 205.553 9.8046 205.553 9.8046H204.249C204.267 10.1419 204.371 10.6829 204.784 11.1449C205.237 11.6524 205.918 11.9107 206.808 11.9107C207.489 11.9107 208.112 11.6889 208.556 11.2938V11.8348H209.771V10.2848L210.203 9.81371L211.431 11.8348H212.847L211.06 8.87765L212.85 6.91738V6.92042Z" fill="#4D5759"/>
<path d="M47.6569 29.264C46.4689 29.264 45.3616 29.0733 44.3349 28.692C43.3229 28.296 42.4429 27.7387 41.6949 27.02C40.9469 26.3013 40.3603 25.458 39.9349 24.49C39.5243 23.522 39.3189 22.4587 39.3189 21.3C39.3189 20.1413 39.5243 19.078 39.9349 18.11C40.3603 17.142 40.9469 16.2987 41.6949 15.58C42.4576 14.8613 43.3449 14.3113 44.3569 13.93C45.3689 13.534 46.4763 13.336 47.6789 13.336C49.0136 13.336 50.2163 13.5707 51.2869 14.04C52.3723 14.4947 53.2816 15.1693 54.0149 16.064L51.7269 18.176C51.1989 17.5747 50.6123 17.1273 49.9669 16.834C49.3216 16.526 48.6176 16.372 47.8549 16.372C47.1363 16.372 46.4763 16.4893 45.8749 16.724C45.2736 16.9587 44.7529 17.296 44.3129 17.736C43.8729 18.176 43.5283 18.6967 43.2789 19.298C43.0443 19.8993 42.9269 20.5667 42.9269 21.3C42.9269 22.0333 43.0443 22.7007 43.2789 23.302C43.5283 23.9033 43.8729 24.424 44.3129 24.864C44.7529 25.304 45.2736 25.6413 45.8749 25.876C46.4763 26.1107 47.1363 26.228 47.8549 26.228C48.6176 26.228 49.3216 26.0813 49.9669 25.788C50.6123 25.48 51.1989 25.018 51.7269 24.402L54.0149 26.514C53.2816 27.4087 52.3723 28.0907 51.2869 28.56C50.2163 29.0293 49.0063 29.264 47.6569 29.264ZM59.7877 19.804H67.2017V22.576H59.7877V19.804ZM60.0517 26.14H68.4337V29H56.5097V13.6H68.1477V16.46H60.0517V26.14ZM71.3124 29V13.6H74.8544V23.632L82.2024 13.6H85.5464V29H82.0264V18.99L74.6784 29H71.3124ZM78.4184 12.61C76.9518 12.61 75.8738 12.3167 75.1844 11.73C74.5098 11.1433 74.1651 10.3147 74.1504 9.244H76.5924C76.6071 9.772 76.7611 10.1753 77.0544 10.454C77.3624 10.718 77.8171 10.85 78.4184 10.85C79.0051 10.85 79.4524 10.718 79.7604 10.454C80.0684 10.1753 80.2298 9.772 80.2444 9.244H82.6864C82.6718 10.3147 82.3198 11.1433 81.6304 11.73C80.9411 12.3167 79.8704 12.61 78.4184 12.61ZM89.4274 29.242C89.1634 29.242 88.8847 29.22 88.5914 29.176C88.3127 29.132 88.0047 29.0733 87.6674 29L87.8874 25.986C88.0927 26.0447 88.3054 26.074 88.5254 26.074C89.1267 26.074 89.596 25.832 89.9334 25.348C90.2707 24.8493 90.5127 24.138 90.6594 23.214C90.806 22.29 90.9014 21.168 90.9454 19.848L91.1654 13.6H103.001V29H99.4814V15.69L100.295 16.504H93.4974L94.2234 15.646L94.0914 19.716C94.0474 21.2267 93.9447 22.5687 93.7834 23.742C93.622 24.9153 93.3727 25.9127 93.0354 26.734C92.698 27.5553 92.236 28.1787 91.6494 28.604C91.0627 29.0293 90.322 29.242 89.4274 29.242ZM116.4 29V15.69L117.214 16.504H111.494V13.6H124.848V16.504H119.128L119.92 15.69V29H116.4ZM127.086 29V13.6H133.752C135.131 13.6 136.319 13.8273 137.316 14.282C138.313 14.722 139.083 15.36 139.626 16.196C140.169 17.032 140.44 18.0293 140.44 19.188C140.44 20.332 140.169 21.322 139.626 22.158C139.083 22.994 138.313 23.6393 137.316 24.094C136.319 24.534 135.131 24.754 133.752 24.754H129.066L130.65 23.148V29H127.086ZM130.65 23.544L129.066 21.85H133.554C134.654 21.85 135.475 21.6153 136.018 21.146C136.561 20.6767 136.832 20.024 136.832 19.188C136.832 18.3373 136.561 17.6773 136.018 17.208C135.475 16.7387 134.654 16.504 133.554 16.504H129.066L130.65 14.81V23.544ZM146.069 19.804H153.483V22.576H146.069V19.804ZM146.333 26.14H154.715V29H142.791V13.6H154.429V16.46H146.333V26.14ZM167.56 29L162.764 21.586L165.646 19.848L171.608 29H167.56ZM157.55 29V13.6H161.092V29H157.55ZM160.058 22.796V19.826H165.426V22.796H160.058ZM165.976 21.696L162.698 21.3L167.692 13.6H171.454L165.976 21.696ZM176.555 19.804H183.969V22.576H176.555V19.804ZM176.819 26.14H185.201V29H173.277V13.6H184.915V16.46H176.819V26.14ZM188.08 29V13.6H194.746C196.125 13.6 197.313 13.8273 198.31 14.282C199.307 14.722 200.077 15.36 200.62 16.196C201.163 17.032 201.434 18.0293 201.434 19.188C201.434 20.332 201.163 21.322 200.62 22.158C200.077 22.994 199.307 23.6393 198.31 24.094C197.313 24.534 196.125 24.754 194.746 24.754H190.06L191.644 23.148V29H188.08ZM191.644 23.544L190.06 21.85H194.548C195.648 21.85 196.469 21.6153 197.012 21.146C197.555 20.6767 197.826 20.024 197.826 19.188C197.826 18.3373 197.555 17.6773 197.012 17.208C196.469 16.7387 195.648 16.504 194.548 16.504H190.06L191.644 14.81V23.544Z" fill="#0B5FA3"/>
<path d="M18 0C27.9411 0 36 8.05887 36 18C36 27.9411 27.9411 36 18 36C8.05887 36 0 27.9411 0 18C0 8.05887 8.05887 0 18 0ZM17.9678 7C15.9948 7 14.1721 7.47103 12.498 8.41504C10.8241 9.35635 9.48847 10.6632 8.49414 12.3359C7.49711 14.0088 7 15.8973 7 18.0059C7.00008 20.1142 7.49719 22.0021 8.49414 23.6748C9.49112 25.3475 10.8241 26.6517 12.498 27.5957C14.0901 28.4913 16.1355 28.957 18 29H20V25H18C16.876 24.957 15.5239 24.702 14.5771 24.1318C13.551 23.5133 12.7443 22.6686 12.1572 21.5928C11.5702 20.5197 11.2764 19.3229 11.2764 18.0078C11.2764 16.6928 11.5701 15.4956 12.1572 14.4199C12.7443 13.347 13.5512 12.5004 14.5771 11.8818L14.5713 11.8789C15.5974 11.2603 16.7271 10.9512 17.9648 10.9512C19.3189 10.9512 20.5299 11.3008 21.5957 12C21.6433 12.0323 21.6917 12.0673 21.7393 12.0996L24 8.75098C23.5346 8.44441 23.0427 8.17538 22.5244 7.94141C21.1202 7.31479 19.5994 7.00004 17.9678 7ZM21.8633 21C21.3858 21.0002 21.0002 21.414 21 21.9189V29H25V21.9189C24.9998 21.4107 24.6111 21.0002 24.1367 21H21.8633ZM26.8516 18L26.8486 18.0029C26.38 18.0029 26 18.319 26 18.709V29H30V18.7061C30 18.3161 29.62 18 29.1514 18H26.8516Z" fill="#0B5FA3"/>
</svg>
